<svg width="100" height="100" viewBox="0 0 100 100" fill="none" xmlns="http://www.w3.org/2000/svg">
  <path d="M50 10C30 10 15 25 15 45C15 65 30 80 50 80C70 80 85 65 85 45C85 25 70 10 50 10Z" fill="#4682B4"/>
  <circle cx="35" cy="40" r="8" fill="white"/>
  <circle cx="65" cy="40" r="8" fill="white"/>
  <path d="M50 20C45 15 40 15 35 20C30 25 30 30 35 35" stroke="white" stroke-width="3" stroke-linecap="round"/>
  <path d="M50 20C55 15 60 15 65 20C70 25 70 30 65 35" stroke="white" stroke-width="3" stroke-linecap="round"/>
  <path d="M40 50C35 55 35 60 40 65" stroke="white" stroke-width="3" stroke-linecap="round"/>
  <path d="M60 50C65 55 65 60 60 65" stroke="white" stroke-width="3" stroke-linecap="round"/>
</svg>